<svg width="90" height="90" viewBox="0 0 90 90" fill="none" xmlns="http://www.w3.org/2000/svg">
<path d="M90 45C90 69.8528 69.8528 90 45 90C20.1472 90 0 69.8528 0 45C0 20.1472 20.1472 0 45 0C69.8528 0 90 20.1472 90 45Z" fill="black"/>
<path d="M23.3652 53.8L25.8852 53.12V37.8C25.8852 37.1067 25.8318 36.6533 25.7252 36.44C25.6452 36.2 25.3918 35.9867 24.9652 35.8L23.2852 34.84L23.4052 31.04H35.8852L36.0852 35.12L33.1252 35.92V43.44L40.1252 35.88C40.2318 35.7733 40.2852 35.6267 40.2852 35.44C40.2852 35.3067 40.2452 35.1867 40.1652 35.08L39.0052 33.68L39.4452 31.04H48.7252L49.2052 33.76L40.0452 43.56L49.8452 56.2V58H42.2052L33.1252 45.96V51.52C33.1252 52.1067 33.1652 52.5067 33.2452 52.72C33.3518 52.9333 33.6052 53.1467 34.0052 53.36L36.1252 54.56L35.9652 58H23.5652L23.3652 53.8Z" fill="white"/>
<path d="M51.1702 53.32C51.5968 52.9467 52.2502 52.4267 53.1302 51.76C54.0102 51.0667 54.7302 50.5067 55.2902 50.08C57.7968 48.16 59.3702 46.92 60.0102 46.36C60.1435 45.7733 60.2102 45.2133 60.2102 44.68C60.2102 43.7467 59.9435 43.0667 59.4102 42.64C58.9035 42.2133 58.0902 42 56.9702 42C55.5568 42 53.9035 42.1333 52.0102 42.4L51.8102 40.84L52.2902 36.8C54.2902 36.2933 56.3168 36.04 58.3702 36.04C60.7968 36.04 62.7168 36.5733 64.1302 37.64C65.5702 38.7067 66.2902 40.1733 66.2902 42.04C66.2902 43.96 65.7968 45.6533 64.8102 47.12C63.8235 48.5867 62.1968 50.2133 59.9302 52L58.2502 53.24L64.9302 51.72H66.5702L66.1302 58H51.2902L51.1702 53.32Z" fill="white"/>
</svg>
